<svg width="322" height="50" viewBox="0 0 322 50" fill="none" xmlns="http://www.w3.org/2000/svg">
<g clip-path="url(#clip0_19_120)">
<path d="M38.6669 8.64256C37.5624 8.64256 36.6669 7.74713 36.6669 6.64256V2C36.6669 0.89543 37.5624 0 38.6669 0H50.2063C53.9999 0 57.2376 0.675455 59.9193 2.02636C62.6173 3.361 64.6695 5.25715 66.0757 7.71483C67.4984 10.1562 68.2097 13.0289 68.2097 16.333C68.2097 19.6533 67.4902 22.5097 66.0512 24.9023C64.6122 27.2786 62.5274 29.1015 59.7966 30.371C57.0822 31.6406 53.7955 32.2753 49.9365 32.2753H38.6669C37.5624 32.2753 36.6669 31.3799 36.6669 30.2753V25.7792C36.6669 24.6747 37.5624 23.7792 38.6669 23.7792H48.2195C50.2471 23.7792 51.9314 23.5025 53.2722 22.9492C54.6131 22.3958 55.6106 21.5657 56.2646 20.4589C56.9351 19.3522 57.2703 17.9768 57.2703 16.333C57.2703 14.6728 56.9351 13.2731 56.2646 12.1338C55.6106 10.9944 54.6049 10.1318 53.2477 9.54588C51.9069 8.94366 50.2144 8.64256 48.1705 8.64256H41.0083H38.6669ZM56.3316 27.246C57.0617 27.246 57.7338 27.6439 58.085 28.284L68.3749 47.0378C69.1063 48.3707 68.1419 49.9999 66.6215 49.9999H59.4722C58.7355 49.9999 58.0585 49.5949 57.7101 48.9458L47.6425 30.192C46.9273 28.8596 47.8924 27.246 49.4047 27.246H56.3316Z" fill="#3B82F6"/>
<path d="M32.046 0C32.9797 0 33.7178 0.889457 33.1128 1.60059V1.60059L7.93799 31.1904C6.94486 32.3577 5.33445 32.3577 4.34131 31.1904L0.744626 26.9629C-0.248186 25.7957 -0.248232 23.9035 0.744626 22.7363L19.4904 0.70397C19.8704 0.257351 20.4272 0 21.0136 0H32.046Z" fill="white"/>
<path d="M32.046 49.9999C32.9797 49.9999 33.7178 49.1104 33.1128 48.3993V48.3993L7.93799 18.8094C6.94486 17.6422 5.33445 17.6422 4.34131 18.8094L0.744626 23.037C-0.248188 24.2042 -0.24823 26.0964 0.744626 27.2635L19.4904 49.2959C19.8704 49.7425 20.4272 49.9999 21.0136 49.9999H32.046Z" fill="white"/>
<path d="M306.978 44C304.206 44 301.711 43.4115 299.493 42.2345C297.276 41.0239 295.526 39.3258 294.244 37.14C292.996 34.9542 292.372 32.4321 292.372 29.5738C292.372 26.7154 293.014 24.1934 294.296 22.0076C295.612 19.8218 297.397 18.1404 299.649 16.9634C301.902 15.7528 304.414 15.1476 307.186 15.1476C309.958 15.1476 312.471 15.7528 314.723 16.9634C316.976 18.1404 318.743 19.8218 320.025 22.0076C321.342 24.1934 322 26.7154 322 29.5738C322 32.4321 321.324 34.9542 319.973 37.14C318.656 39.3258 316.854 41.0239 314.567 42.2345C312.315 43.4115 309.785 44 306.978 44ZM306.978 37.8461C308.295 37.8461 309.525 37.5435 310.669 36.9382C311.847 36.2993 312.783 35.3577 313.476 34.1135C314.169 32.8693 314.515 31.356 314.515 29.5738C314.515 26.9172 313.788 24.8827 312.332 23.4704C310.911 22.0244 309.161 21.3014 307.082 21.3014C305.003 21.3014 303.253 22.0244 301.833 23.4704C300.446 24.8827 299.753 26.9172 299.753 29.5738C299.753 32.2303 300.429 34.2816 301.781 35.7276C303.167 37.14 304.899 37.8461 306.978 37.8461Z" fill="white"/>
<path d="M273.189 31.4599C273.803 33.2694 276.362 33.2694 276.977 31.4599L281.899 16.9586C282.174 16.1473 282.936 15.6015 283.793 15.6015H287.201C288.602 15.6015 289.569 17.0049 289.07 18.3141L279.94 42.2586C279.644 43.0338 278.901 43.546 278.071 43.546H271.993C271.162 43.546 270.418 43.0323 270.123 42.2555L261.037 18.311C260.54 17.0024 261.507 15.6015 262.907 15.6015H266.372C267.229 15.6015 267.991 16.1473 268.266 16.9586L273.189 31.4599Z" fill="white"/>
<path d="M252.013 13.949C250.731 13.949 249.656 13.5774 248.789 12.8342C247.957 12.0587 247.541 11.1054 247.541 9.97449C247.541 8.84354 247.957 7.90646 248.789 7.16327C249.656 6.38776 250.731 6 252.013 6C253.296 6 254.354 6.38776 255.186 7.16327C256.052 7.90646 256.486 8.84354 256.486 9.97449C256.486 11.1054 256.052 12.0587 255.186 12.8342C254.354 13.5774 253.296 13.949 252.013 13.949ZM253.602 17.148C254.706 17.148 255.602 18.0434 255.602 19.148V42C255.602 43.1046 254.706 44 253.602 44H250.321C249.217 44 248.321 43.1046 248.321 42V19.148C248.321 18.0434 249.217 17.148 250.321 17.148H253.602Z" fill="white"/>
<path d="M234.871 16.5758C234.871 17.5519 236.328 18.0432 237.086 17.4274C237.528 17.0677 238.003 16.7449 238.51 16.459C239.492 15.9173 240.561 15.5501 241.716 15.3575C242.806 15.1757 243.707 16.0934 243.707 17.198V20.6896C243.707 21.7518 242.846 22.6128 241.784 22.6128V22.6128C239.497 22.6128 237.765 23.1341 236.586 24.1765C235.443 25.219 234.871 27.0349 234.871 29.6242V41.546C234.871 42.6506 233.976 43.546 232.871 43.546H229.594C228.49 43.546 227.594 42.6506 227.594 41.546V17.6015C227.594 16.4969 228.49 15.6015 229.594 15.6015H233.897C234.435 15.6015 234.871 16.0377 234.871 16.5758V16.5758Z" fill="white"/>
<path d="M222.283 28.9685C222.283 29.3311 222.274 29.6807 222.256 30.0173C222.204 30.9899 221.363 31.6923 220.389 31.6923H203.203C202.03 31.6923 201.074 32.7155 201.467 33.8199C201.836 34.8574 202.416 35.7287 203.207 36.4338C204.489 37.5771 206.065 38.1488 207.937 38.1488C210.184 38.1488 211.892 37.3701 213.061 35.8126C213.514 35.2103 214.181 34.7692 214.934 34.7692H218.843C220.19 34.7692 221.15 36.0835 220.493 37.2592C219.598 38.8617 218.358 40.2511 216.773 41.4275C214.417 43.1425 211.523 44 208.093 44C205.32 44 202.825 43.4115 200.608 42.2345C198.425 41.0239 196.709 39.3258 195.462 37.14C194.249 34.9542 193.643 32.4321 193.643 29.5738C193.643 26.6818 194.249 24.1429 195.462 21.9571C196.675 19.7713 198.373 18.09 200.556 16.913C202.739 15.736 205.251 15.1476 208.093 15.1476C210.83 15.1476 213.273 15.7192 215.421 16.8626C217.605 18.0059 219.285 19.6368 220.463 21.7554C221.676 23.8403 222.283 26.2446 222.283 28.9685ZM212.707 26.9508C213.827 26.9508 214.776 26.0048 214.397 24.9514C214.069 24.0385 213.509 23.259 212.719 22.6129C211.402 21.5032 209.79 20.9483 207.885 20.9483C206.083 20.9483 204.558 21.4863 203.311 22.5624C202.626 23.1508 202.09 23.8732 201.704 24.7294C201.202 25.8419 202.171 26.9508 203.391 26.9508H212.707Z" fill="white"/>
<path d="M158.92 29.2534C158.92 26.4287 159.492 23.9235 160.636 21.7377C161.814 19.5519 163.408 17.8705 165.418 16.6936C167.427 15.5166 169.663 14.9281 172.123 14.9281C173.994 14.9281 175.779 15.3316 177.477 16.1387V16.1387C179.002 16.8336 181.531 15.7697 181.531 14.0933V8C181.531 6.89543 182.426 6 183.531 6H186.912C188.016 6 188.912 6.89543 188.912 8V41.3266C188.912 42.4311 188.016 43.3266 186.912 43.3266H182.48C181.956 43.3266 181.531 42.9017 181.531 42.3775V42.3775C181.531 41.434 180.112 40.9323 179.36 41.5023C178.867 41.8765 178.325 42.2156 177.737 42.5195C176.108 43.3602 174.219 43.7805 172.071 43.7805C169.645 43.7805 167.427 43.1752 165.418 41.9646C163.408 40.7541 161.814 39.0559 160.636 36.8701C159.492 34.6507 158.92 32.1118 158.92 29.2534ZM181.583 29.3543C181.583 27.6393 181.236 26.1765 180.543 24.9659C179.85 23.7217 178.915 22.7801 177.737 22.1412C176.558 21.4687 175.294 21.1324 173.942 21.1324C172.591 21.1324 171.343 21.4518 170.2 22.0908C169.056 22.7297 168.121 23.6713 167.393 24.9155C166.7 26.1261 166.353 27.5721 166.353 29.2534C166.353 30.9348 166.7 32.4144 167.393 33.6923C168.121 34.9365 169.056 35.8949 170.2 36.5674C171.378 37.24 172.625 37.5763 173.942 37.5763C175.294 37.5763 176.558 37.2568 177.737 36.6179C178.915 35.9453 179.85 35.0037 180.543 33.7932C181.236 32.5489 181.583 31.0693 181.583 29.3543Z" fill="white"/>
<path d="M139.926 44C137.154 44 134.659 43.4115 132.441 42.2345C130.224 41.0239 128.474 39.3258 127.192 37.14C125.944 34.9542 125.32 32.4321 125.32 29.5738C125.32 26.7154 125.962 24.1934 127.244 22.0076C128.56 19.8218 130.345 18.1404 132.597 16.9634C134.85 15.7528 137.362 15.1476 140.134 15.1476C142.906 15.1476 145.419 15.7528 147.671 16.9634C149.924 18.1404 151.691 19.8218 152.973 22.0076C154.29 24.1934 154.948 26.7154 154.948 29.5738C154.948 32.4321 154.272 34.9542 152.921 37.14C151.604 39.3258 149.802 41.0239 147.515 42.2345C145.263 43.4115 142.733 44 139.926 44ZM139.926 37.8461C141.243 37.8461 142.473 37.5435 143.617 36.9382C144.795 36.2993 145.731 35.3577 146.424 34.1135C147.117 32.8693 147.463 31.356 147.463 29.5738C147.463 26.9172 146.736 24.8827 145.28 23.4704C143.859 22.0244 142.109 21.3014 140.03 21.3014C137.951 21.3014 136.201 22.0244 134.781 23.4704C133.394 24.8827 132.701 26.9172 132.701 29.5738C132.701 32.2303 133.377 34.2816 134.729 35.7276C136.115 37.14 137.847 37.8461 139.926 37.8461Z" fill="white"/>
<path d="M94.0002 29.5738C94.0002 26.6818 94.6066 24.1597 95.8194 22.0076C97.0323 19.8218 98.7129 18.1404 100.861 16.9634C103.01 15.7528 105.47 15.1476 108.242 15.1476C111.811 15.1476 114.757 16.0219 117.079 17.7705C118.784 19.0118 120.081 20.623 120.97 22.6042C121.504 23.7948 120.54 25.034 119.235 25.034H115.388C114.533 25.034 113.806 24.4681 113.345 23.7494C112.95 23.1349 112.445 22.6216 111.829 22.2093C110.859 21.5032 109.646 21.1501 108.19 21.1501C106.111 21.1501 104.465 21.8899 103.252 23.3695C102.04 24.8155 101.433 26.8836 101.433 29.5738C101.433 32.2303 102.04 34.2984 103.252 35.778C104.465 37.224 106.111 37.947 108.19 37.947C110.595 37.947 112.318 37.0957 113.36 35.3929C113.802 34.6694 114.527 34.1135 115.375 34.1135H119.214C120.525 34.1135 121.488 35.3643 120.935 36.5535C120.048 38.4621 118.762 40.0532 117.079 41.3266C114.722 43.1088 111.777 44 108.242 44C105.47 44 103.01 43.4115 100.861 42.2345C98.7129 41.0239 97.0323 39.3426 95.8194 37.1904C94.6066 35.0046 94.0002 32.4657 94.0002 29.5738Z" fill="white"/>
</g>
<defs>
<clipPath id="clip0_19_120">
<rect width="322" height="50" fill="white"/>
</clipPath>
</defs>
</svg>
