<svg width="322" height="50" viewBox="0 0 322 50" fill="none" xmlns="http://www.w3.org/2000/svg">
<path d="M41.6666 8.64256C40.562 8.64256 39.6666 7.74713 39.6666 6.64256V2C39.6666 0.89543 40.562 0 41.6666 0H53.206C56.9996 0 60.2373 0.675455 62.919 2.02636C65.617 3.361 67.6692 5.25715 69.0754 7.71483C70.498 10.1562 71.2094 13.0289 71.2094 16.333C71.2094 19.6533 70.4899 22.5097 69.0509 24.9023C67.6119 27.2786 65.5271 29.1015 62.7963 30.371C60.0819 31.6406 56.7952 32.2753 52.9362 32.2753H41.6666C40.5621 32.2753 39.6666 31.3799 39.6666 30.2753V25.7792C39.6666 24.6747 40.5621 23.7792 41.6666 23.7792H51.2192C53.2468 23.7792 54.9311 23.5025 56.2719 22.9492C57.6128 22.3958 58.6102 21.5657 59.2643 20.4589C59.9347 19.3522 60.27 17.9768 60.27 16.333C60.27 14.6728 59.9347 13.2731 59.2643 12.1338C58.6102 10.9944 57.6046 10.1318 56.2474 9.54588C54.9066 8.94366 53.2141 8.64256 51.1702 8.64256H44.008H41.6666ZM59.3313 27.246C60.0614 27.246 60.7335 27.6439 61.0847 28.284L71.3746 47.0378C72.106 48.3707 71.1416 49.9999 69.6212 49.9999H62.4719C61.7352 49.9999 61.0582 49.5949 60.7098 48.9458L50.6422 30.192C49.927 28.8596 50.8921 27.246 52.4044 27.246H59.3313Z" fill="#3B82F6"/>
<path d="M35.0462 0C35.9799 0 36.718 0.889415 36.113 1.60059V1.60059L10.9372 31.1904C9.94414 32.3574 8.3346 32.3573 7.34151 31.1904L3.74483 26.9629C2.75174 25.7956 2.75171 23.9036 3.74483 22.7363L22.4896 0.704008C22.8696 0.257366 23.4265 0 24.0129 0H35.0462Z" fill="#111827"/>
<path d="M35.0462 49.9999C35.9799 49.9999 36.718 49.1105 36.113 48.3993V48.3993L10.9372 18.8094C9.94414 17.6425 8.3346 17.6425 7.34151 18.8094L3.74483 23.037C2.75174 24.2043 2.75171 26.0963 3.74483 27.2635L22.4896 49.2959C22.8696 49.7425 23.4265 49.9999 24.0129 49.9999H35.0462Z" fill="#111827"/>
<path d="M303.68 44C300.989 44 298.568 43.4115 296.416 42.2345C294.264 41.0239 292.566 39.3258 291.322 37.14C290.111 34.9542 289.506 32.4321 289.506 29.5738C289.506 26.7154 290.128 24.1934 291.372 22.0076C292.65 19.8218 294.382 18.1404 296.567 16.9634C298.753 15.7528 301.191 15.1476 303.881 15.1476C306.572 15.1476 309.01 15.7528 311.195 16.9634C313.381 18.1404 315.096 19.8218 316.34 22.0076C317.618 24.1934 318.257 26.7154 318.257 29.5738C318.257 32.4321 317.601 34.9542 316.29 37.14C315.012 39.3258 313.264 41.0239 311.044 42.2345C308.858 43.4115 306.404 44 303.68 44ZM303.68 37.8461C304.958 37.8461 306.151 37.5435 307.261 36.9382C308.404 36.2993 309.312 35.3577 309.985 34.1135C310.657 32.8693 310.994 31.356 310.994 29.5738C310.994 26.9172 310.287 24.8827 308.875 23.4704C307.496 22.0244 305.798 21.3014 303.781 21.3014C301.763 21.3014 300.065 22.0244 298.686 23.4704C297.341 24.8827 296.668 26.9172 296.668 29.5738C296.668 32.2303 297.324 34.2816 298.636 35.7276C299.981 37.14 301.662 37.8461 303.68 37.8461Z" fill="#111827"/>
<path d="M270.828 31.2724C271.431 33.1048 274.023 33.1048 274.627 31.2724L279.336 16.9758C279.606 16.1556 280.372 15.6015 281.236 15.6015H284.432C285.825 15.6015 286.791 16.9894 286.308 18.2956L277.447 42.2401C277.157 43.0249 276.409 43.546 275.572 43.546H269.784C268.946 43.546 268.197 43.0235 267.907 42.2371L259.09 18.2926C258.609 16.9869 259.576 15.6015 260.967 15.6015H264.218C265.082 15.6015 265.848 16.1556 266.118 16.9758L270.828 31.2724Z" fill="#111827"/>
<path d="M250.34 13.949C249.095 13.949 248.052 13.5774 247.211 12.8342C246.404 12.0587 246 11.1054 246 9.97449C246 8.84354 246.404 7.90646 247.211 7.16327C248.052 6.38776 249.095 6 250.34 6C251.585 6 252.611 6.38776 253.419 7.16327C254.26 7.90646 254.68 8.84354 254.68 9.97449C254.68 11.1054 254.26 12.0587 253.419 12.8342C252.611 13.5774 251.585 13.949 250.34 13.949ZM251.822 17.148C252.927 17.148 253.822 18.0434 253.822 19.148V42C253.822 43.1046 252.927 44 251.822 44H248.757C247.653 44 246.757 43.1046 246.757 42V19.148C246.757 18.0434 247.653 17.148 248.757 17.148H251.822Z" fill="#111827"/>
<path d="M233.705 16.5567C233.705 17.5204 235.159 18.0016 235.902 17.3875C236.318 17.0438 236.762 16.7343 237.236 16.459C238.173 15.9266 239.191 15.5628 240.29 15.3675C241.377 15.1743 242.28 16.0934 242.28 17.198V20.7465C242.28 21.7773 241.444 22.6128 240.414 22.6128V22.6128C238.194 22.6128 236.513 23.1341 235.369 24.1765C234.26 25.219 233.705 27.0349 233.705 29.6242V41.546C233.705 42.6506 232.809 43.546 231.705 43.546H228.643C227.538 43.546 226.643 42.6506 226.643 41.546V17.6015C226.643 16.4969 227.538 15.6015 228.643 15.6015H232.75C233.277 15.6015 233.705 16.0291 233.705 16.5567V16.5567Z" fill="#111827"/>
<path d="M221.489 28.9685C221.489 29.3279 221.48 29.6744 221.463 30.0082C221.413 30.9846 220.57 31.6923 219.593 31.6923H203.032C201.862 31.6923 200.907 32.7113 201.288 33.8175C201.646 34.8561 202.209 35.7282 202.977 36.4338C204.221 37.5771 205.751 38.1488 207.567 38.1488C209.738 38.1488 211.39 37.3772 212.524 35.8341C212.976 35.2202 213.648 34.7692 214.41 34.7692H218.094C219.434 34.7692 220.395 36.0709 219.758 37.2493C218.889 38.856 217.683 40.2487 216.142 41.4275C213.855 43.1425 211.047 44 207.718 44C205.028 44 202.607 43.4115 200.455 42.2345C198.336 41.0239 196.672 39.3258 195.461 37.14C194.284 34.9542 193.695 32.4321 193.695 29.5738C193.695 26.6818 194.284 24.1429 195.461 21.9571C196.638 19.7713 198.286 18.09 200.404 16.913C202.523 15.736 204.961 15.1476 207.718 15.1476C210.375 15.1476 212.745 15.7192 214.83 16.8626C216.949 18.0059 218.58 19.6368 219.723 21.7554C220.9 23.8403 221.489 26.2446 221.489 28.9685ZM212.137 26.9508C213.256 26.9508 214.205 26.0068 213.836 24.9504C213.517 24.0379 212.974 23.2588 212.207 22.6129C210.93 21.5032 209.366 20.9483 207.516 20.9483C205.768 20.9483 204.288 21.4863 203.078 22.5624C202.412 23.1518 201.892 23.8755 201.517 24.7336C201.029 25.8487 201.998 26.9508 203.215 26.9508H212.137Z" fill="#111827"/>
<path d="M160 29.2534C160 26.4287 160.555 23.9235 161.665 21.7377C162.808 19.5519 164.355 17.8705 166.305 16.6936C168.256 15.5166 170.425 14.9281 172.812 14.9281C174.628 14.9281 176.36 15.3316 178.008 16.1387V16.1387C179.473 16.8267 181.942 15.807 181.942 14.188V8C181.942 6.89543 182.838 6 183.942 6H187.105C188.209 6 189.105 6.89543 189.105 8V41.3266C189.105 42.4311 188.209 43.3266 187.105 43.3266H182.873C182.359 43.3266 181.942 42.9099 181.942 42.3959V42.3959C181.942 41.464 180.524 40.9714 179.786 41.5405C179.321 41.8996 178.812 42.226 178.26 42.5195C176.679 43.3602 174.847 43.7805 172.762 43.7805C170.408 43.7805 168.256 43.1752 166.305 41.9646C164.355 40.7541 162.808 39.0559 161.665 36.8701C160.555 34.6507 160 32.1118 160 29.2534ZM181.993 29.3543C181.993 27.6393 181.656 26.1765 180.984 24.9659C180.311 23.7217 179.403 22.7801 178.26 22.1412C177.117 21.4687 175.889 21.1324 174.578 21.1324C173.266 21.1324 172.056 21.4518 170.946 22.0908C169.836 22.7297 168.928 23.6713 168.222 24.9155C167.55 26.1261 167.213 27.5721 167.213 29.2534C167.213 30.9348 167.55 32.4144 168.222 33.6923C168.928 34.9365 169.836 35.8949 170.946 36.5674C172.089 37.24 173.3 37.5763 174.578 37.5763C175.889 37.5763 177.117 37.2568 178.26 36.6179C179.403 35.9453 180.311 35.0037 180.984 33.7932C181.656 32.5489 181.993 31.0693 181.993 29.3543Z" fill="#111827"/>
<path d="M141.568 44C138.878 44 136.457 43.4115 134.304 42.2345C132.152 41.0239 130.454 39.3258 129.21 37.14C127.999 34.9542 127.394 32.4321 127.394 29.5738C127.394 26.7154 128.016 24.1934 129.26 22.0076C130.538 19.8218 132.27 18.1404 134.456 16.9634C136.641 15.7528 139.079 15.1476 141.77 15.1476C144.46 15.1476 146.898 15.7528 149.084 16.9634C151.269 18.1404 152.984 19.8218 154.229 22.0076C155.507 24.1934 156.145 26.7154 156.145 29.5738C156.145 32.4321 155.49 34.9542 154.178 37.14C152.9 39.3258 151.152 41.0239 148.932 42.2345C146.747 43.4115 144.292 44 141.568 44ZM141.568 37.8461C142.846 37.8461 144.04 37.5435 145.149 36.9382C146.293 36.2993 147.201 35.3577 147.873 34.1135C148.546 32.8693 148.882 31.356 148.882 29.5738C148.882 26.9172 148.176 24.8827 146.763 23.4704C145.385 22.0244 143.686 21.3014 141.669 21.3014C139.651 21.3014 137.953 22.0244 136.574 23.4704C135.229 24.8827 134.557 26.9172 134.557 29.5738C134.557 32.2303 135.212 34.2816 136.524 35.7276C137.869 37.14 139.55 37.8461 141.568 37.8461Z" fill="#111827"/>
<path d="M96.9999 29.5738C96.9999 26.6818 97.5884 24.1597 98.7653 22.0076C99.9423 19.8218 101.573 18.1404 103.658 16.9634C105.743 15.7528 108.131 15.1476 110.821 15.1476C114.284 15.1476 117.143 16.0219 119.396 17.7705C121.054 19.0138 122.314 20.6283 123.176 22.6139C123.694 23.8054 122.73 25.034 121.431 25.034H117.811C116.95 25.034 116.219 24.4597 115.761 23.731C115.38 23.1247 114.893 22.6175 114.301 22.2093C113.36 21.5032 112.183 21.1501 110.77 21.1501C108.753 21.1501 107.155 21.8899 105.978 23.3695C104.801 24.8155 104.213 26.8836 104.213 29.5738C104.213 32.2303 104.801 34.2984 105.978 35.778C107.155 37.224 108.753 37.947 110.77 37.947C113.095 37.947 114.764 37.1018 115.776 35.4113C116.215 34.6777 116.944 34.1135 117.799 34.1135H121.411C122.716 34.1135 123.679 35.3534 123.143 36.5437C122.281 38.4567 121.032 40.051 119.396 41.3266C117.109 43.1088 114.251 44 110.821 44C108.131 44 105.743 43.4115 103.658 42.2345C101.573 41.0239 99.9423 39.3426 98.7653 37.1904C97.5884 35.0046 96.9999 32.4657 96.9999 29.5738Z" fill="#111827"/>
</svg>
